<svg xmlns="http://www.w3.org/2000/svg" width="351.415" height="91.985" viewBox="0 0 351.415 91.985">
  <g id="Group_562" data-name="Group 562" transform="translate(-496.792 -265.459)">
    <g id="Group_455" data-name="Group 455" transform="translate(247.047 141.36)">
      <path id="Path_83" data-name="Path 83" d="M341.729,124.1v91.985H249.745V124.1Zm-46.064,3.928a42.14,42.14,0,1,1-41.908,42.139,42.046,42.046,0,0,1,41.908-42.139Z" fill="#fff" fill-rule="evenodd"/>
      <path id="Path_84" data-name="Path 84" d="M263.74,143.023h64.047l-64,54.347H327.64l-63.9-54.347Z" fill="#fff" fill-rule="evenodd"/>
    </g>
    <g id="Group_460" data-name="Group 460" transform="translate(262.01 141.36)">
      <g id="Group_456" data-name="Group 456">
        <path id="Path_85" data-name="Path 85" d="M504.933,153.557l-.168-.989a6.959,6.959,0,0,0-.73-1.834,1.2,1.2,0,0,0-.743-.5s-.827-.215-.084-.742a5.9,5.9,0,0,1,2.52-.815,5.043,5.043,0,0,1,1.722.171s1.077.417,1.987.891c0,0,1.723,1.343,1.229,2.416,0,0-.07.487-.152,1,0,0,4.908-.176,7.053-.176a17.093,17.093,0,0,0,2.782-.34s.865-.316,1.8.849a18.545,18.545,0,0,0,2.055,2.327,3.714,3.714,0,0,1,.843,2.121s.191,1.011-1.516,1.834c0,0-1.027.312-1.851.588,0,0-.739.223-.971-.023a2.954,2.954,0,0,1-.6-.565,2.6,2.6,0,0,0-1.2-.343,9.239,9.239,0,0,1-2.43.031,5.287,5.287,0,0,0-1.295.01,4.449,4.449,0,0,0,.581-.994,5.674,5.674,0,0,0,.543-1.477s.126-.211-.966-.443c0,0-1.72-.245-3.028-.414a12.477,12.477,0,0,0-2.465-.241,6,6,0,0,1-1.367,1.131s-.245.374-1.659.193a3.545,3.545,0,0,1-1.421-.382s.1-.629-.14-.567c0,0-2.622.538-3.769.949,0,0-.83.252-1.485.5a4.669,4.669,0,0,0-1.964,1.24s-.744.928-1.069,1.426a1.9,1.9,0,0,1-.982,1.151,4.5,4.5,0,0,1-2.29.858,2.287,2.287,0,0,1-1.559-1.186,12.628,12.628,0,0,1-.825-1.824,9.749,9.749,0,0,1,.077-2,6.3,6.3,0,0,0-.408-2.587s-.387-.945-.571-1.244c0,0-.241-.58-.661-.657a6.661,6.661,0,0,0,1.318,0,4.037,4.037,0,0,1,3.031.586,16.8,16.8,0,0,1,1.684,1.315s-.183.287,2.088-.083c0,0,3.522-.495,7.055-1.161" fill="#fff"/>
        <path id="Path_86" data-name="Path 86" d="M514.529,165.7a17.5,17.5,0,0,0,3.334-.029.854.854,0,0,0,.769-.645s.4-.741,1.071-.655a7.579,7.579,0,0,1,3.43,3.178,1.639,1.639,0,0,1,.092,1.567s-.26.495-.493.925a1.012,1.012,0,0,1-1.319.57,8.765,8.765,0,0,1-1.8-1.153s-.834-.937-1.4-.68c0,0-.133.15-.808.188a2.164,2.164,0,0,0,.6-1.589s.134-.564-.6-.808a12.406,12.406,0,0,0-2.877-.869" fill="#fff"/>
        <path id="Path_87" data-name="Path 87" d="M497.878,165.453s.167.747.247,1.009a1.091,1.091,0,0,0,.58.734s1.551.584,4.416-.412a13.931,13.931,0,0,0-1.966,1.591,5.468,5.468,0,0,0-.573,1.237s-1.063,2.426-1.877,2.684a2.123,2.123,0,0,1-2.217-1.188s-.981-1.543-1.226-1.839c0,0-.931-1.859.163-3.146,0,0,1.144-1.42,1.876-1.42,0,0,.657-.158.577.75" fill="#fff"/>
        <path id="Path_88" data-name="Path 88" d="M509.277,163.219a16.25,16.25,0,0,0-.151,2.511,18.837,18.837,0,0,0,3.729-3.241c-.394-.036-.92-.127-.92-.127a2.5,2.5,0,0,0-.745-.15,11.884,11.884,0,0,0-2.161.183c.336.141.248.824.248.824M505.1,184.593a16.525,16.525,0,0,0,4.025-.771c1.98-.641,2.084-.317,2.084-.317.077,0,.033-.825.033-.825.172-3.081-.083-9.9-.083-9.9,0-1.485-.977-1.746-.977-1.746a6.008,6.008,0,0,0-1.558-.423,70.772,70.772,0,0,1-6.392,5.151s-.033.33.448.495a1.4,1.4,0,0,1,.767,1.764,27.989,27.989,0,0,0-.741,3.414,11.113,11.113,0,0,0-.026,2.215s-.135.171.527.781a4.307,4.307,0,0,0,1.893.161m12.957,5.834c1.881,1.326.653,3.825.653,3.825a2.145,2.145,0,0,1-2.218,1.4,4.192,4.192,0,0,1-1.721-1.077,2.977,2.977,0,0,0-.9-.605,5.547,5.547,0,0,0-1.439-.138c.675-.171.46-.447.46-.447-.274-.91-2.052-1.811-2.052-1.811-2.314-1.247-2.02-1.77-2.02-1.77a1.824,1.824,0,0,1,.667-.333,13.724,13.724,0,0,1,1.579-.224c.018-.956.018-1.668.018-1.668a3.832,3.832,0,0,0,0-1,14.625,14.625,0,0,1-1.648.084,4.106,4.106,0,0,0-1.225.255c-2.868,5.985-4.764,7.068-4.764,7.068-2.048,1.739-3.439,1.169-3.439,1.169a1.476,1.476,0,0,1-.97-1.832,1.564,1.564,0,0,0,.079-1.338,2.415,2.415,0,0,1-.079-1.065c.159.652,1.137.493,1.137.493a4.4,4.4,0,0,0,2.057-.754c2.367-1.995,1.96-3.482,1.96-3.482a7.025,7.025,0,0,1-1.378,0c-.25,0-.665.811-.665.811-.231.506-.995.192-.995.192a6.3,6.3,0,0,0-1.308-.6c-.848-.31-.826-1.9-.826-1.9a15.2,15.2,0,0,1,.1-2.167c.157-1.667.08-4.326.08-4.326v-1.238c-1.4,1.32-8.78,7.062-8.78,7.062-1.31,1.083-1.966.746-1.966.746a10.043,10.043,0,0,0-1.466-.164c-1.067-.266-1.131-1.008-1.131-1.008a2.411,2.411,0,0,0-.36-.907c-.246-.658.571-2.32.571-2.32a6.758,6.758,0,0,1,1.46-1.639,2.07,2.07,0,0,0-.285.889c-.054.813.809.579.809.579a20.367,20.367,0,0,0,4.745-2.255c9.639-6.524,12.907-10,12.907-10a3.09,3.09,0,0,1-1.919-1.067,6.921,6.921,0,0,0-.491-.831,8.126,8.126,0,0,1-1.387-1.825,11.9,11.9,0,0,0,2.21.823,2.3,2.3,0,0,0,.986.094,1.546,1.546,0,0,0,.162-.917,14.061,14.061,0,0,0-.067-2.317c-.915.092-2.394.33-2.394.33-.984.165-1.143-.413-1.143-.413a5.372,5.372,0,0,0-1.483-1.517c-.9-.409-.657-.987-.657-.987.328-.665.411-.665.411-.665s.161-.237,1.931-.158c0,0,4.484-.26,5.332-.377,0,0,2.162-.23,2.474-.23,0,0,1.876-.089,2.608-.03,0,0,2.952.165,3.167.235a.607.607,0,0,1-.028.828s.139.146-1.542,1.765c0,0-.18.2-.048.27a.975.975,0,0,0,.531.079,1.989,1.989,0,0,1,1.336.571s1.162.8.945,1.422a7.667,7.667,0,0,0-.789.533s-2.878,2.083-4.526,3.479c0,0-.655.351.75.846,0,0,1.233.5,1.718.672a8.954,8.954,0,0,1,1.315.818s1.062.424.9,1.172a1.97,1.97,0,0,1-.481.66s-.334.339-.259,1.338c0,0-.4,5.985-.234,8.655,0,0,.078,2.326.14,3.256,0,0,.248,3.354.167,3.893a6.939,6.939,0,0,1,2.725,1.093" fill="#fff"/>
        <path id="Path_89" data-name="Path 89" d="M511.415,176.175a3.541,3.541,0,0,1-1.33.818.426.426,0,0,1-.479-.076,9.672,9.672,0,0,0-1.079-.429,4.174,4.174,0,0,0-1.285.184,2.194,2.194,0,0,0-.687.338l.088-.4s.312-.47-.584-.593a1.223,1.223,0,0,0-.331.043.328.328,0,0,1-.325-.166c-.025-.393.133-.466.133-.466a16.063,16.063,0,0,0,1.167-1.25s1.972-.974,3.454-.181a4.257,4.257,0,0,1,.666.843s.283.412.367.588c0,0,.463.407.225.749" fill="#fff"/>
        <path id="Path_90" data-name="Path 90" d="M509.255,180.082s.351.465.2.836a3.4,3.4,0,0,1-.421.653.694.694,0,0,1-.754.342,7.637,7.637,0,0,0-1.8-.143,3.109,3.109,0,0,0-.774.178.814.814,0,0,1-.53.306,1.052,1.052,0,0,1-.581-.062c.651-.173.558-.528.558-.528.093-.369-.31-.952-.31-.952a2.262,2.262,0,0,1-.439-.7.637.637,0,0,1,.1-.72c.19-.383.674-.249.674-.249s1.692.136,2.324.136c.086,0,1.015,0,1.166.258a5.322,5.322,0,0,1,.593.64" fill="#fff"/>
        <path id="Path_91" data-name="Path 91" d="M504.933,153.557l-.168-.989a6.959,6.959,0,0,0-.73-1.834,1.2,1.2,0,0,0-.743-.5s-.827-.215-.084-.742a5.9,5.9,0,0,1,2.52-.815,5.043,5.043,0,0,1,1.722.171s1.077.417,1.987.891c0,0,1.723,1.343,1.229,2.416,0,0-.07.487-.152,1,0,0,4.908-.176,7.053-.176a17.093,17.093,0,0,0,2.782-.34s.865-.316,1.8.849a18.545,18.545,0,0,0,2.055,2.327,3.714,3.714,0,0,1,.843,2.121s.191,1.011-1.516,1.834c0,0-1.027.312-1.851.588,0,0-.739.223-.971-.023a2.954,2.954,0,0,1-.6-.565,2.6,2.6,0,0,0-1.2-.343,9.239,9.239,0,0,1-2.43.031,5.287,5.287,0,0,0-1.295.01,4.449,4.449,0,0,0,.581-.994,5.674,5.674,0,0,0,.543-1.477s.126-.211-.966-.443c0,0-1.72-.245-3.028-.414a12.477,12.477,0,0,0-2.465-.241,6,6,0,0,1-1.367,1.131s-.245.374-1.659.193a3.545,3.545,0,0,1-1.421-.382s.1-.629-.14-.567c0,0-2.622.538-3.769.949,0,0-.83.252-1.485.5a4.669,4.669,0,0,0-1.964,1.24s-.744.928-1.069,1.426a1.9,1.9,0,0,1-.982,1.151,4.5,4.5,0,0,1-2.29.858,2.287,2.287,0,0,1-1.559-1.186,12.628,12.628,0,0,1-.825-1.824,9.749,9.749,0,0,1,.077-2,6.3,6.3,0,0,0-.408-2.587s-.387-.945-.571-1.244c0,0-.241-.58-.661-.657a6.661,6.661,0,0,0,1.318,0,4.037,4.037,0,0,1,3.031.586,16.8,16.8,0,0,1,1.684,1.315s-.183.287,2.088-.083c0,0,3.522-.495,7.055-1.161" fill="#fff"/>
        <path id="Path_92" data-name="Path 92" d="M514.529,165.7a17.5,17.5,0,0,0,3.334-.029.854.854,0,0,0,.769-.645s.4-.741,1.071-.655a7.579,7.579,0,0,1,3.43,3.178,1.639,1.639,0,0,1,.092,1.567s-.26.495-.493.925a1.012,1.012,0,0,1-1.319.57,8.765,8.765,0,0,1-1.8-1.153s-.834-.937-1.4-.68c0,0-.133.15-.808.188a2.164,2.164,0,0,0,.6-1.589s.134-.564-.6-.808a12.406,12.406,0,0,0-2.877-.869" fill="#fff"/>
        <path id="Path_93" data-name="Path 93" d="M497.878,165.453s.167.747.247,1.009a1.091,1.091,0,0,0,.58.734s1.551.584,4.416-.412a13.931,13.931,0,0,0-1.966,1.591,5.468,5.468,0,0,0-.573,1.237s-1.063,2.426-1.877,2.684a2.123,2.123,0,0,1-2.217-1.188s-.981-1.543-1.226-1.839c0,0-.931-1.859.163-3.146,0,0,1.144-1.42,1.876-1.42,0,0,.657-.158.577.75" fill="#fff"/>
        <path id="Path_94" data-name="Path 94" d="M509.277,163.219a16.25,16.25,0,0,0-.151,2.511,18.837,18.837,0,0,0,3.729-3.241c-.394-.036-.92-.127-.92-.127a2.5,2.5,0,0,0-.745-.15,11.884,11.884,0,0,0-2.161.183c.336.141.248.824.248.824M505.1,184.593a16.525,16.525,0,0,0,4.025-.771c1.98-.641,2.084-.317,2.084-.317.077,0,.033-.825.033-.825.172-3.081-.083-9.9-.083-9.9,0-1.485-.977-1.746-.977-1.746a6.008,6.008,0,0,0-1.558-.423,70.772,70.772,0,0,1-6.392,5.151s-.033.33.448.495a1.4,1.4,0,0,1,.767,1.764,27.989,27.989,0,0,0-.741,3.414,11.113,11.113,0,0,0-.026,2.215s-.135.171.527.781a4.307,4.307,0,0,0,1.893.161m12.957,5.834c1.881,1.326.653,3.825.653,3.825a2.145,2.145,0,0,1-2.218,1.4,4.192,4.192,0,0,1-1.721-1.077,2.977,2.977,0,0,0-.9-.605,5.547,5.547,0,0,0-1.439-.138c.675-.171.46-.447.46-.447-.274-.91-2.052-1.811-2.052-1.811-2.314-1.247-2.02-1.77-2.02-1.77a1.824,1.824,0,0,1,.667-.333,13.724,13.724,0,0,1,1.579-.224c.018-.956.018-1.668.018-1.668a3.832,3.832,0,0,0,0-1,14.625,14.625,0,0,1-1.648.084,4.106,4.106,0,0,0-1.225.255c-2.868,5.985-4.764,7.068-4.764,7.068-2.048,1.739-3.439,1.169-3.439,1.169a1.476,1.476,0,0,1-.97-1.832,1.564,1.564,0,0,0,.079-1.338,2.415,2.415,0,0,1-.079-1.065c.159.652,1.137.493,1.137.493a4.4,4.4,0,0,0,2.057-.754c2.367-1.995,1.96-3.482,1.96-3.482a7.025,7.025,0,0,1-1.378,0c-.25,0-.665.811-.665.811-.231.506-.995.192-.995.192a6.3,6.3,0,0,0-1.308-.6c-.848-.31-.826-1.9-.826-1.9a15.2,15.2,0,0,1,.1-2.167c.157-1.667.08-4.326.08-4.326v-1.238c-1.4,1.32-8.78,7.062-8.78,7.062-1.31,1.083-1.966.746-1.966.746a10.043,10.043,0,0,0-1.466-.164c-1.067-.266-1.131-1.008-1.131-1.008a2.411,2.411,0,0,0-.36-.907c-.246-.658.571-2.32.571-2.32a6.758,6.758,0,0,1,1.46-1.639,2.07,2.07,0,0,0-.285.889c-.054.813.809.579.809.579a20.367,20.367,0,0,0,4.745-2.255c9.639-6.524,12.907-10,12.907-10a3.09,3.09,0,0,1-1.919-1.067,6.921,6.921,0,0,0-.491-.831,8.126,8.126,0,0,1-1.387-1.825,11.9,11.9,0,0,0,2.21.823,2.3,2.3,0,0,0,.986.094,1.546,1.546,0,0,0,.162-.917,14.061,14.061,0,0,0-.067-2.317c-.915.092-2.394.33-2.394.33-.984.165-1.143-.413-1.143-.413a5.372,5.372,0,0,0-1.483-1.517c-.9-.409-.657-.987-.657-.987.328-.665.411-.665.411-.665s.161-.237,1.931-.158c0,0,4.484-.26,5.332-.377,0,0,2.162-.23,2.474-.23,0,0,1.876-.089,2.608-.03,0,0,2.952.165,3.167.235a.607.607,0,0,1-.028.828s.139.146-1.542,1.765c0,0-.18.2-.048.27a.975.975,0,0,0,.531.079,1.989,1.989,0,0,1,1.336.571s1.162.8.945,1.422a7.667,7.667,0,0,0-.789.533s-2.878,2.083-4.526,3.479c0,0-.655.351.75.846,0,0,1.233.5,1.718.672a8.954,8.954,0,0,1,1.315.818s1.062.424.9,1.172a1.97,1.97,0,0,1-.481.66s-.334.339-.259,1.338c0,0-.4,5.985-.234,8.655,0,0,.078,2.326.14,3.256,0,0,.248,3.354.167,3.893a6.939,6.939,0,0,1,2.725,1.093" fill="#fff"/>
        <path id="Path_95" data-name="Path 95" d="M511.415,176.175a3.541,3.541,0,0,1-1.33.818.426.426,0,0,1-.479-.076,9.672,9.672,0,0,0-1.079-.429,4.174,4.174,0,0,0-1.285.184,2.194,2.194,0,0,0-.687.338l.088-.4s.312-.47-.584-.593a1.223,1.223,0,0,0-.331.043.328.328,0,0,1-.325-.166c-.025-.393.133-.466.133-.466a16.063,16.063,0,0,0,1.167-1.25s1.972-.974,3.454-.181a4.257,4.257,0,0,1,.666.843s.283.412.367.588c0,0,.463.407.225.749" fill="#fff"/>
        <path id="Path_96" data-name="Path 96" d="M509.255,180.082s.351.465.2.836a3.4,3.4,0,0,1-.421.653.694.694,0,0,1-.754.342,7.637,7.637,0,0,0-1.8-.143,3.109,3.109,0,0,0-.774.178.814.814,0,0,1-.53.306,1.052,1.052,0,0,1-.581-.062c.651-.173.558-.528.558-.528.093-.369-.31-.952-.31-.952a2.262,2.262,0,0,1-.439-.7.637.637,0,0,1,.1-.72c.19-.383.674-.249.674-.249s1.692.136,2.324.136c.086,0,1.015,0,1.166.258a5.322,5.322,0,0,1,.593.64" fill="#fff"/>
      </g>
      <g id="Group_457" data-name="Group 457">
        <path id="Path_97" data-name="Path 97" d="M377.054,162.124a16.207,16.207,0,0,0-2.6.187s-.922.131-2.207.255a8.915,8.915,0,0,0-1.731.177,17.564,17.564,0,0,0-.051,2.278,5.445,5.445,0,0,0,.548,1.975,5.565,5.565,0,0,0,.991,1.81,2.209,2.209,0,0,0,.833-.09s1.112-.1,1.713-.1l2.558-.152c-.011-.7.079-5-.052-6.339m4.843,5.967a14.124,14.124,0,0,0,1.47-.105s.661-.036,1.115-.1c0,0,.69-.057,1.221-.121,0,0,.413,0,.618-.624a7.882,7.882,0,0,0,.622-1.146s.6-1.05,1.044-1.682c0,0,.6-.987.886-1.576,0,0,.321-.663.409-.874a1.665,1.665,0,0,0-1.357-.454,15.681,15.681,0,0,0-1.962-.019s-1.971.121-2.64.121c0,0-.6.03-1.124.061-.1,2.023-.2,4.279-.3,6.523m7.744,1.132a1.924,1.924,0,0,1,.38,1.207c0,.182.053.657.053.657a2.38,2.38,0,0,1-.053,1.1c-.185.512-1.116.859-1.116.859a4.918,4.918,0,0,1-.737.436,4.8,4.8,0,0,1-.914.318,7.692,7.692,0,0,1-1.006.065c.862-.536.509-.691.509-.691a6.314,6.314,0,0,0-1.651-.311h-1.43a10.432,10.432,0,0,1-1.96.065c0,.746-.122,5.486-.122,5.486v9.985a14.721,14.721,0,0,1-.308,2.554,5.353,5.353,0,0,1-.736,1.507,3.7,3.7,0,0,1-.872.871,2.762,2.762,0,0,1-1.1.434,1.782,1.782,0,0,1-1.233-.758,4.005,4.005,0,0,1-.733-.992,9.709,9.709,0,0,1-.737-1.682,12.142,12.142,0,0,1-.3-2.116,9.266,9.266,0,0,0-.247-1.374,3.873,3.873,0,0,0,1.039.171.673.673,0,0,0,.624-.1c.053-.445.243-3.5.243-3.5-.062-.941-.062-5.484-.062-5.484.062-1.826-.025-4.878-.025-4.878-.251,0-1.065-.035-1.065-.035-1.131.112-1.928.112-1.928.112-.923-.077-1.658-.125-1.658-.125a4.231,4.231,0,0,0-.984.743,1.435,1.435,0,0,1-1.238.631c-1.033-.572-1.841-1.008-1.841-1.008a8.187,8.187,0,0,1-1.479-1.692c-.408-.73-.986-2.055-.986-2.055a12.289,12.289,0,0,1-.92-2.717,36.12,36.12,0,0,0-1.142-4.453,2.6,2.6,0,0,0-1.232-1.583c-1.237-.986-.7-1.576-.7-1.576a1.122,1.122,0,0,1,.419-.576,3.374,3.374,0,0,1,1-.125,5.864,5.864,0,0,0,1.779-.379,2.576,2.576,0,0,1,1.239-.371,11,11,0,0,1,1.841.8,6.989,6.989,0,0,1,1.288.505s2.276-.262,4.3-.431c0,0,2.5-.25,3.182-.383a21.169,21.169,0,0,0-.17-2.672s-.242-1.753-.365-2.5c0,0-.248-.763-.313-1.065,0,0-.112-.693-.548-.874,0,0-.679-.243-.734-.625a.859.859,0,0,1,.545-.876s.563-.375.926-.614a3.441,3.441,0,0,1,1.475-.815s.8.069,1.294.118c0,0,1.169,0,1.784-.049a.707.707,0,0,1,.866.049s.37.077.8.936a2.633,2.633,0,0,0,.424.687s.541.811.357,1.189a2.352,2.352,0,0,0-.419,1.423,16.417,16.417,0,0,0-.441,2.935,19.6,19.6,0,0,0-.116,2.2h1.344s1.679-.072,3.578-.258c0,0,3.077-.229,4.051-.229a9.985,9.985,0,0,0,2.1-.615.666.666,0,0,1,.7.454,2.744,2.744,0,0,0,.587,1.019s1.044,1.122,1.54,1.747a2.786,2.786,0,0,1,.614,1.855,3.062,3.062,0,0,1-.372,1.689,9.681,9.681,0,0,1-1.105,1.076s-2.525,1.811-3.565,2.561c0,0-1.293,1.111-2.1,1.978Z" fill="#fff"/>
      </g>
      <g id="Group_458" data-name="Group 458">
        <path id="Path_98" data-name="Path 98" d="M441.543,160.08a21.611,21.611,0,0,0,2.071-3.961,12.919,12.919,0,0,0-1.44.153,4.688,4.688,0,0,0-1.656.512c.065.367.114.728.173,1.085a6,6,0,0,1,0,2.343c.286-.052.559-.091.852-.132m6.08,9.79c-.244-.1-1.355-.317-1.355-.317a9.781,9.781,0,0,0-1.894-.436,5.788,5.788,0,0,0-.813,0c-.063,1.435-.119,2.55-.119,2.55,0,.452-.017,1.256-.043,2.245,1.162-.083,2.464-.176,3.777-.251a11.777,11.777,0,0,0-1.762-2.111,2.429,2.429,0,0,0,1.719.176c.49.075.49-.667.49-.667.067-.4.132-.792.207-1.146a1.326,1.326,0,0,0-.207-.043m.865-4.017a2.657,2.657,0,0,0-.241-.955,4.274,4.274,0,0,1-.376-1.089,19.619,19.619,0,0,0-4.048.128h-.065c-.017.825-.076,1.935-.126,3.248a20.586,20.586,0,0,0,3.254-.384c.465-.067.96-.139,1.483-.2l.119-.748m-9.84,3.879c-.491.2-2.768.947-2.768.947-.16.058-.432.152-.759.258.1.6.2,1.2.271,1.8a.987.987,0,0,0,.263.531,3.942,3.942,0,0,0,.535-.288,3.5,3.5,0,0,0-.458.946,1.132,1.132,0,0,1-.088.543c1.238-.1,2.458-.194,3.591-.233.049-1.291.09-2.234.09-2.234.018-.814.018-1.608.018-2.4-.425.072-.695.137-.695.137m8.975-10.219a9.483,9.483,0,0,0,1.54-.128s.742-.185,1.05-.247a1.927,1.927,0,0,1,.423.434s.626.864.369,1.506c0,0-.666,1.233-1.028,1.793,0,0-.258.451.734.513a8.709,8.709,0,0,1,2.171,1.141s.656.681.276,1.122a2.872,2.872,0,0,1-.118.541.15.15,0,0,1-.026.072c1.95-.06,2.619,0,2.619,0a.762.762,0,0,1,.648.541c.114.3.266.7.266.7a2.427,2.427,0,0,1,.124.746,10.1,10.1,0,0,1-.611,1.618,1.788,1.788,0,0,1-.927.817,4.3,4.3,0,0,1-1.515-.084c-.429-.063-1.108-.135-1.108-.135-.218,0-.492-.041-.754-.059-.091.369-.178.732-.253,1.088,0,0-.249,1.7-.867,1.958,1.321-.073,2.493-.123,3.35-.123,0,0,1.314.093,2.016.05,0,0,1.233-.2,1.717.168a3.134,3.134,0,0,1,.951,1.18,9.077,9.077,0,0,0,.556,1.827s.542,1.081-.86,2.072a2.869,2.869,0,0,1-1.178.47,2.052,2.052,0,0,1-1.234-.049,6.536,6.536,0,0,1-.951-.084.516.516,0,0,0,.27-.509s-.015-.382-.628-.489a22.557,22.557,0,0,0-3.748-.365s-6.118,0-7.593.26c-.02.969-.047,1.859-.076,2.5a.771.771,0,0,1,.1-.009,44.269,44.269,0,0,1,5.781-.186c3.138.621,2.71,2.365,2.71,2.365a1.844,1.844,0,0,1-.679,1.189,8.005,8.005,0,0,1-.746.876c-.554.691-1.652.125-1.652.125a5.321,5.321,0,0,0-1.79-.325,8.657,8.657,0,0,0-1.4,0l.247-.276a10.548,10.548,0,0,0-2.6-.145c-.029,1.889-.112,4.041-.112,4.041s-.082,1.338-.082,2.047a4.085,4.085,0,0,0,.049.707s.163.954.163,1.28c0,.816-.38.955-.38.955-.4.491-1.014,1.1-1.014,1.1a1.1,1.1,0,0,1-1.443.127l-1.1-.631a1.509,1.509,0,0,1-.419-1.081,5.232,5.232,0,0,0-.247-1.04c-.081-.507-.245-1.16-.245-1.16a3.542,3.542,0,0,0-.276-.8c.4.587.61.544.61.544.244,0,.146-.419.146-.419,0-.307.054-3.3.054-3.3,0-.275.023-.921.056-1.745h-.056a22.447,22.447,0,0,0-3.757.749,3.385,3.385,0,0,1-1.441.557,3.212,3.212,0,0,1-1.318-.534c-.45-.342-.868-.647-.868-.647a3.23,3.23,0,0,1-.848-2.1,8.27,8.27,0,0,1,.237-.954c.158-.877.429-.877.429-.877a1.094,1.094,0,0,1,.865.183,1.83,1.83,0,0,0,.8.323,6.478,6.478,0,0,0,1.85,0c.982-.136,4.116-.444,4.116-.444.03-.012.073-.012.11-.022.008-.37.016-.742.016-1.043,0-.383,0-.907.018-1.5-.212.041-.413.041-.576.074,0,0-5.472.37-7.694.814,0,0-.556.062-.873.12a11.191,11.191,0,0,0-1.4.331,10.6,10.6,0,0,1-2.086.59,2.388,2.388,0,0,1-1.166-.49,9.7,9.7,0,0,0-.841-.551s-.782-.462-.706-1.053c0,0-.247-1.636.252-2.256a1.779,1.779,0,0,1,1.35-.806s-.307.436.435.436a3.979,3.979,0,0,0,1.6,0s2.089-.354,4.808-.666c-.472-.632-.382-.9-.382-.9a4.917,4.917,0,0,0-.188-.881c-.063-.254-.161-.583-.276-.955-.368.236-.83.523-.83.523a4.319,4.319,0,0,1-1.1.384,1.58,1.58,0,0,1-1.237-.63c-.5-.813-1.291-1.933-1.291-1.933-.677-.948-.309-1.433-.309-1.433a4.069,4.069,0,0,0,.427-.571,1.556,1.556,0,0,1,.56-.687,1.94,1.94,0,0,1,.672.247,5.83,5.83,0,0,0,1.7.141c-.143-.347-.225-.559-.225-.559a1.051,1.051,0,0,0-.342-.673,2.483,2.483,0,0,0-.618-.212,2.915,2.915,0,0,0,.523-.692,2.512,2.512,0,0,1,.9-.592,10.042,10.042,0,0,0,1.754-.277,2.632,2.632,0,0,1,1.3.23s.767.118.978,1.4c0,0,.106.431.266,1.126a24.381,24.381,0,0,0,4.723-.066c.018-.017.061,0,.094-.017-.027-1.444-.076-2.61-.094-3.289a28.6,28.6,0,0,0-2.77.738,1.549,1.549,0,0,1-1.738-.431,5.1,5.1,0,0,0-.919-.878,1.944,1.944,0,0,1-.54-1.813,8.25,8.25,0,0,0,.23-.861,3.676,3.676,0,0,0,1.114.123,1.763,1.763,0,0,0,.6-.123s.475-.135,1.3-.312c-.164-.041-.426-1.038-.426-1.038a6.857,6.857,0,0,1-.036-.713c-.055-.287-.11-.576-.171-.832a35.932,35.932,0,0,0-4.594,1.505,5.047,5.047,0,0,1-.823.665l-.487-.258a1.881,1.881,0,0,1-.662-.832c-.248-.371-.447-.717-.447-.717a1.736,1.736,0,0,1-.451-.528,3.106,3.106,0,0,1,.817-3.416c.911-.829,1.564-.157,1.564-.157a4.645,4.645,0,0,0,.978.495,3.066,3.066,0,0,0,1.723.08,11.534,11.534,0,0,0,1.392.073,6,6,0,0,0-.814-1.32,2.639,2.639,0,0,1-.578-.66,2.254,2.254,0,0,0-.452-.672l-.364-.124a1.688,1.688,0,0,0-.824.289.923.923,0,0,1,.25-.743,1.435,1.435,0,0,1,.574-.5s.364-.21.659-.414a1.915,1.915,0,0,1,1.3-.583,7.8,7.8,0,0,1,3.786.255,2.052,2.052,0,0,0,.765.164s.821,0,.862,1.82c0,0,.083.948.217,2.124,1.131-.114,1.918-.2,1.918-.2.532-.094,1.268-.288,2.085-.495a13.283,13.283,0,0,0,.382-2.168,5.33,5.33,0,0,0-.328-1.5s-.871-.665.4-1.661c0,0,.668-.376,1.31-.67a5.891,5.891,0,0,1,1.156-.327,5.635,5.635,0,0,1,1.309-.092,3.216,3.216,0,0,0,1.231.17s.328-.042.819.543a6.754,6.754,0,0,0,.505.789,1.77,1.77,0,0,1,0,1.148,8.327,8.327,0,0,1-.735,2.062,9.375,9.375,0,0,1,2.78-.466c1.959-.335,2.371,3.077,2.371,3.077a1.5,1.5,0,0,1-.654,1.831,1.286,1.286,0,0,1-.738.408c-.5-.161-1.144-.317-1.144-.317a6.908,6.908,0,0,0-1.476.317c.981-.824.156-.824.156-.824-.73-.037-1.992-.091-3.294-.167-.539.931-1.163,1.995-1.92,3.212.412-.036.827-.064,1.234-.072" fill="#fff"/>
      </g>
      <g id="Group_459" data-name="Group 459">
        <path id="Path_99" data-name="Path 99" d="M570.991,172.87c1.043-.176,2.016-.354,2.764-.457,0,0,2.052-.2,2.712-.2,0,0,1.963-.017,2.533-.027,0,0,1.161-.038,1.235.563,0,0,.174.561-.714,1.092a3.364,3.364,0,0,0,1.549-.271,3.3,3.3,0,0,1,1.14-.515,5.451,5.451,0,0,0,1.968-.776,8.135,8.135,0,0,1,.961-.685,5.3,5.3,0,0,0,.721-.593s.913-.432-.266-2.233c0,0-1.037-1.263-1.344-1.651a7.953,7.953,0,0,0-6.158-.742s-2.448.781-4.076,1.13c0,0-1.918.331-3.077.523.062-4.375.263-8.5.263-8.5a6.364,6.364,0,0,1,1.108-2.547c1.44-2.015.016-3.038.016-3.038a15.171,15.171,0,0,0-1.488-1.3c-.929-.721-1.979-1.554-1.979-1.554-.87-.895-1.251-.854-1.251-.854-1,.019-1.693,1.634-1.693,1.634a2.957,2.957,0,0,1-2.062,2.154,1.312,1.312,0,0,0-.971,1.73,3.028,3.028,0,0,1,1,.514s1.218.495,1.521,3.27c0,0,.274,4.736.1,9.356a17.4,17.4,0,0,1-2.413.365,45.766,45.766,0,0,0-6.624,1.48,9.162,9.162,0,0,1-3.4.09,10.519,10.519,0,0,0-2.049-.392s-.5,0-.819.678a5.428,5.428,0,0,0-.4.93s-.21.225.422.478a6.49,6.49,0,0,1,1.5,1.7s.738,1.208,1.347,2c0,0,.587,1.408,3.118.45a67.69,67.69,0,0,1,7.349-2.347s.806-.188,1.976-.424c0,4.417-.017,10.579-.033,12.909-2.04.34-3.647.674-3.647.674a26.518,26.518,0,0,1-2.986.343c-1.393.1-1.393.018-1.393.018a2.959,2.959,0,0,0-.5-.063c-.415,0-.309,1.5-.309,1.5a4.448,4.448,0,0,0,1.364,2.883,4.168,4.168,0,0,0,1.99,1.294,15.627,15.627,0,0,0,3.555-.664c3.1-.88,9.826-.98,9.826-.98,1.237-.1.9.23.9.23a3.8,3.8,0,0,1-.809.684,42.039,42.039,0,0,1,5.713-1.5,1.429,1.429,0,0,0,1.221-1.353,7.989,7.989,0,0,1,.382-1.333,1.591,1.591,0,0,0-.431-1.984c-.5-.409-1.005-.838-1.005-.838a3.1,3.1,0,0,0-1.97-.3,46.413,46.413,0,0,1-4.748.411c-.479.024-1.034.117-1.636.194-.029-1.814-.018-8.59-.01-13.161" fill="#fff"/>
        <path id="Path_100" data-name="Path 100" d="M570.991,172.87c1.043-.176,2.016-.354,2.764-.457,0,0,2.052-.2,2.712-.2,0,0,1.963-.017,2.533-.027,0,0,1.161-.038,1.235.563,0,0,.174.561-.714,1.092a3.364,3.364,0,0,0,1.549-.271,3.3,3.3,0,0,1,1.14-.515,5.451,5.451,0,0,0,1.968-.776,8.135,8.135,0,0,1,.961-.685,5.3,5.3,0,0,0,.721-.593s.913-.432-.266-2.233c0,0-1.037-1.263-1.344-1.651a7.953,7.953,0,0,0-6.158-.742s-2.448.781-4.076,1.13c0,0-1.918.331-3.077.523.062-4.375.263-8.5.263-8.5a6.364,6.364,0,0,1,1.108-2.547c1.44-2.015.016-3.038.016-3.038a15.171,15.171,0,0,0-1.488-1.3c-.929-.721-1.979-1.554-1.979-1.554-.87-.895-1.251-.854-1.251-.854-1,.019-1.693,1.634-1.693,1.634a2.957,2.957,0,0,1-2.062,2.154,1.312,1.312,0,0,0-.971,1.73,3.028,3.028,0,0,1,1,.514s1.218.495,1.521,3.27c0,0,.274,4.736.1,9.356a17.4,17.4,0,0,1-2.413.365,45.766,45.766,0,0,0-6.624,1.48,9.162,9.162,0,0,1-3.4.09,10.519,10.519,0,0,0-2.049-.392s-.5,0-.819.678a5.428,5.428,0,0,0-.4.93s-.21.225.422.478a6.49,6.49,0,0,1,1.5,1.7s.738,1.208,1.347,2c0,0,.587,1.408,3.118.45a67.69,67.69,0,0,1,7.349-2.347s.806-.188,1.976-.424c0,4.417-.017,10.579-.033,12.909-2.04.34-3.647.674-3.647.674a26.518,26.518,0,0,1-2.986.343c-1.393.1-1.393.018-1.393.018a2.959,2.959,0,0,0-.5-.063c-.415,0-.309,1.5-.309,1.5a4.448,4.448,0,0,0,1.364,2.883,4.168,4.168,0,0,0,1.99,1.294,15.627,15.627,0,0,0,3.555-.664c3.1-.88,9.826-.98,9.826-.98,1.237-.1.9.23.9.23a3.8,3.8,0,0,1-.809.684,42.039,42.039,0,0,1,5.713-1.5,1.429,1.429,0,0,0,1.221-1.353,7.989,7.989,0,0,1,.382-1.333,1.591,1.591,0,0,0-.431-1.984c-.5-.409-1.005-.838-1.005-.838a3.1,3.1,0,0,0-1.97-.3,46.413,46.413,0,0,1-4.748.411c-.479.024-1.034.117-1.636.194-.029-1.814-.018-8.59-.01-13.161" fill="#fff"/>
      </g>
    </g>
  </g>
</svg>
